
                <svg xmlns="http://www.w3.org/2000/svg" xmlns:xlink="http://www.w3.org/1999/xlink" width="873" height="928" shape-rendering="optimizeSpeed">

            <g>
                <rect x="50" y="80" width="193.79999999999998" height="30" rx="3" ry="3" style="fill:#81d4fa; stroke:#444; stroke-width:1"></rect>

                <line x1="243.79999999999998" y1="90" x2="248.79999999999998" y2="90" style="fill:#fff; stroke:#444; stroke-width:1"></line>

                <line x1="243.79999999999998" y1="100" x2="248.79999999999998" y2="100" style="fill:#fff; stroke:#444; stroke-width:1"></line>

                <path d="M248.79999999999998, 81 L268.79999999999995, 95 L248.79999999999998, 109 Z" fill="#fff" stroke="#444" stroke-width="1"></path>

                <title>export compareVersion</title>
            <text x="65" y="100" font-family="monospace" font-size="13" fill="#222">
                <tspan x="65" y="100">export compareVersion</tspan>
            </text>

            </g>
            <g>
                <rect x="87" y="128.5" width="424.4" height="30" style="fill:#a5d6a7; stroke:#444; stroke-width:1"></rect>

                <line x1="97" y1="128.5" x2="97" y2="158.5" style="fill:#a5d6a7; stroke:#444; stroke-width:1"></line>
                <line x1="501.4" y1="128.5" x2="501.4" y2="158.5" style="fill:#a5d6a7; stroke:#444; stroke-width:1"></line>

                <title>compareVersion = (valueTemplate, valueLocale) =&gt;</title>
            <text x="112" y="148.5" font-family="monospace" font-size="13" fill="#222">
                <tspan x="112" y="148.5">compareVersion = (valueTemplate, valueLocale) =&gt;</tspan>
            </text>

            </g><g>
            <rect x="154" y="192" width="442.2" height="30" rx="3" ry="3" style="fill:#ce93d8; stroke:#444; stroke-width:1"></rect>
            <polygon points="124,207 154,177 184,207 154,237" style="fill:#ce93d8; stroke:#444; stroke-width:1"></polygon>
            <title>(!valueTemplate || valueTemplate === valueLocale)</title>
            <text x="199" y="212" font-family="monospace" font-size="13" fill="#222">
                <tspan x="199" y="212">(!valueTemplate || valueTemplate === valueLocale)</tspan>
            </text>

            <text x="146.2" y="212" font-family="monospace" font-size="13" fill="#222">if</text> <text x="161.8" y="238.95" font-family="monospace" font-size="13" fill="#222">+</text>
        </g>
            <g>
                <rect x="174" y="247" width="170.4" height="30" rx="3" ry="3" style="fill:#90caf9; stroke:#444; stroke-width:1"></rect>

                <line x1="344.4" y1="257" x2="349.4" y2="257" style="fill:#a5d6a7; stroke:#444; stroke-width:1"></line>

                <line x1="344.4" y1="267" x2="349.4" y2="267" style="fill:#a5d6a7; stroke:#444; stroke-width:1"></line>

                <path d="M349.4, 251 L365.4, 262 L349.4, 273 Z" fill="#a5d6a7" stroke="#444" stroke-width="1"></path>

                <title>return valueLocale</title>
            <text x="189" y="267" font-family="monospace" font-size="13" fill="#222">
                <tspan x="189" y="267">return valueLocale</tspan>
            </text>

            </g><g>
            <rect x="154" y="312" width="600.4" height="30" rx="3" ry="3" style="fill:#ce93d8; stroke:#444; stroke-width:1"></rect>
            <polygon points="124,327 154,297 184,327 154,357" style="fill:#ce93d8; stroke:#444; stroke-width:1"></polygon>
            <title>(!semver.validRange(valueTemplate) &amp;&amp; semver.validRange(valueLocale))</title>
            <text x="199" y="332" font-family="monospace" font-size="13" fill="#222">
                <tspan x="199" y="332">(!semver.validRange(valueTemplate) &amp;&amp; semver.validRange(valueLocale))</tspan>
            </text>

            <text x="146.2" y="332" font-family="monospace" font-size="13" fill="#222">if</text> <text x="161.8" y="358.95" font-family="monospace" font-size="13" fill="#222">+</text>
        </g>
                <g>
                   <rect x="174" y="367" width="264" height="30" rx="2" ry="2" style="fill:#C5E1A5; stroke:#444; stroke-width:1"></rect>
                   <title>semver.validRange(valueLocale)</title>
            <text x="189" y="387" font-family="monospace" font-size="13" fill="#222">
                <tspan x="189" y="387">semver.validRange(valueLocale)</tspan>
            </text>


                </g>
            <g>
                <rect x="174" y="415.5" width="186" height="30" rx="3" ry="3" style="fill:#90caf9; stroke:#444; stroke-width:1"></rect>

                <line x1="360" y1="425.5" x2="365" y2="425.5" style="fill:#a5d6a7; stroke:#444; stroke-width:1"></line>

                <line x1="360" y1="435.5" x2="365" y2="435.5" style="fill:#a5d6a7; stroke:#444; stroke-width:1"></line>

                <path d="M365, 419.5 L381, 430.5 L365, 441.5 Z" fill="#a5d6a7" stroke="#444" stroke-width="1"></path>

                <title>return valueTemplate</title>
            <text x="189" y="435.5" font-family="monospace" font-size="13" fill="#222">
                <tspan x="189" y="435.5">return valueTemplate</tspan>
            </text>

            </g><g>
            <rect x="154" y="480.5" width="600.4" height="30" rx="3" ry="3" style="fill:#ce93d8; stroke:#444; stroke-width:1"></rect>
            <polygon points="124,495.5 154,465.5 184,495.5 154,525.5" style="fill:#ce93d8; stroke:#444; stroke-width:1"></polygon>
            <title>(!semver.validRange(valueTemplate) || !semver.validRange(valueLocale))</title>
            <text x="199" y="500.5" font-family="monospace" font-size="13" fill="#222">
                <tspan x="199" y="500.5">(!semver.validRange(valueTemplate) || !semver.validRange(valueLocale))</tspan>
            </text>

            <text x="146.2" y="500.5" font-family="monospace" font-size="13" fill="#222">if</text> <text x="161.8" y="527.45" font-family="monospace" font-size="13" fill="#222">+</text>
        </g>
            <g>
                <rect x="174" y="535.5" width="170.4" height="30" rx="3" ry="3" style="fill:#90caf9; stroke:#444; stroke-width:1"></rect>

                <line x1="344.4" y1="545.5" x2="349.4" y2="545.5" style="fill:#a5d6a7; stroke:#444; stroke-width:1"></line>

                <line x1="344.4" y1="555.5" x2="349.4" y2="555.5" style="fill:#a5d6a7; stroke:#444; stroke-width:1"></line>

                <path d="M349.4, 539.5 L365.4, 550.5 L349.4, 561.5 Z" fill="#a5d6a7" stroke="#444" stroke-width="1"></path>

                <title>return valueLocale</title>
            <text x="189" y="555.5" font-family="monospace" font-size="13" fill="#222">
                <tspan x="189" y="555.5">return valueLocale</tspan>
            </text>

            </g>
                <g>
                   <rect x="124" y="585.5" width="495.4" height="30" rx="3" ry="3" style="fill:#90caf9; stroke:#444; stroke-width:1"></rect>
                   <title>const minExistingVersion = semver.minVersion(valueTemplate)</title>
            <text x="139" y="605.5" font-family="monospace" font-size="13" fill="#222">
                <tspan x="139" y="605.5">const minExistingVersion = semver.minVersion(valueTemplate)</tspan>
            </text>


                </g>
                <g>
                   <rect x="124" y="634" width="430.4" height="30" rx="3" ry="3" style="fill:#90caf9; stroke:#444; stroke-width:1"></rect>
                   <title>const minNewVersion = semver.minVersion(valueLocale)</title>
            <text x="139" y="654" font-family="monospace" font-size="13" fill="#222">
                <tspan x="139" y="654">const minNewVersion = semver.minVersion(valueLocale)</tspan>
            </text>


                </g><g>
            <rect x="154" y="697.5" width="364.2" height="30" rx="3" ry="3" style="fill:#ce93d8; stroke:#444; stroke-width:1"></rect>
            <polygon points="124,712.5 154,682.5 184,712.5 154,742.5" style="fill:#ce93d8; stroke:#444; stroke-width:1"></polygon>
            <title>(!minExistingVersion || !minNewVersion)</title>
            <text x="199" y="717.5" font-family="monospace" font-size="13" fill="#222">
                <tspan x="199" y="717.5">(!minExistingVersion || !minNewVersion)</tspan>
            </text>

            <text x="146.2" y="717.5" font-family="monospace" font-size="13" fill="#222">if</text> <text x="161.8" y="744.45" font-family="monospace" font-size="13" fill="#222">+</text>
        </g>
            <g>
                <rect x="174" y="752.5" width="170.4" height="30" rx="3" ry="3" style="fill:#90caf9; stroke:#444; stroke-width:1"></rect>

                <line x1="344.4" y1="762.5" x2="349.4" y2="762.5" style="fill:#a5d6a7; stroke:#444; stroke-width:1"></line>

                <line x1="344.4" y1="772.5" x2="349.4" y2="772.5" style="fill:#a5d6a7; stroke:#444; stroke-width:1"></line>

                <path d="M349.4, 756.5 L365.4, 767.5 L349.4, 778.5 Z" fill="#a5d6a7" stroke="#444" stroke-width="1"></path>

                <title>return valueLocale</title>
            <text x="189" y="772.5" font-family="monospace" font-size="13" fill="#222">
                <tspan x="189" y="772.5">return valueLocale</tspan>
            </text>

            </g><g>
            <rect x="154" y="817.5" width="426.59999999999997" height="30" rx="3" ry="3" style="fill:#ce93d8; stroke:#444; stroke-width:1"></rect>
            <polygon points="124,832.5 154,802.5 184,832.5 154,862.5" style="fill:#ce93d8; stroke:#444; stroke-width:1"></polygon>
            <title>(minNewVersion.compare(minExistingVersion) &gt; 0)</title>
            <text x="199" y="837.5" font-family="monospace" font-size="13" fill="#222">
                <tspan x="199" y="837.5">(minNewVersion.compare(minExistingVersion) &gt; 0)</tspan>
            </text>

            <text x="146.2" y="837.5" font-family="monospace" font-size="13" fill="#222">if</text> <text x="161.8" y="864.45" font-family="monospace" font-size="13" fill="#222">+</text> <text x="584.4999999999999" y="830.55" font-family="monospace" font-size="13" fill="#222">-</text>
        </g>
            <g>
                <rect x="174" y="872.5" width="170.4" height="30" rx="3" ry="3" style="fill:#90caf9; stroke:#444; stroke-width:1"></rect>

                <line x1="344.4" y1="882.5" x2="349.4" y2="882.5" style="fill:#a5d6a7; stroke:#444; stroke-width:1"></line>

                <line x1="344.4" y1="892.5" x2="349.4" y2="892.5" style="fill:#a5d6a7; stroke:#444; stroke-width:1"></line>

                <path d="M349.4, 876.5 L365.4, 887.5 L349.4, 898.5 Z" fill="#a5d6a7" stroke="#444" stroke-width="1"></path>

                <title>return valueLocale</title>
            <text x="189" y="892.5" font-family="monospace" font-size="13" fill="#222">
                <tspan x="189" y="892.5">return valueLocale</tspan>
            </text>

            </g>
            <g>
                <rect x="640.5999999999999" y="872.5" width="186" height="30" rx="3" ry="3" style="fill:#90caf9; stroke:#444; stroke-width:1"></rect>

                <line x1="826.5999999999999" y1="882.5" x2="831.5999999999999" y2="882.5" style="fill:#a5d6a7; stroke:#444; stroke-width:1"></line>

                <line x1="826.5999999999999" y1="892.5" x2="831.5999999999999" y2="892.5" style="fill:#a5d6a7; stroke:#444; stroke-width:1"></line>

                <path d="M831.5999999999999, 876.5 L847.5999999999999, 887.5 L831.5999999999999, 898.5 Z" fill="#a5d6a7" stroke="#444" stroke-width="1"></path>

                <title>return valueTemplate</title>
            <text x="655.5999999999999" y="892.5" font-family="monospace" font-size="13" fill="#222">
                <tspan x="655.5999999999999" y="892.5">return valueTemplate</tspan>
            </text>

            </g>
            <g>
               <rect x="25" y="13.75" width="216.6" height="24" style="fill:#fff59d; stroke:#444; stroke-width:1"></rect>
               <circle cx="25" cy="25" r="15" style="fill:#fff59d; stroke:#444; stroke-width:1"></circle>
               <title>Program: source module</title>
            <text x="55" y="30" font-family="monospace" font-size="13" fill="#222">
                <tspan x="55" y="30">Program: source module</tspan>
            </text>
            </g>
            <g>
               <path d="M25, 40 L25 91 Q25 95
                29 95
                L42 95 " style="fill:none; stroke:#444; stroke-width:1"></path>
               <path d="M42, 92 L50, 95 L42, 98 Z" fill="#333"></path>
            </g>
            <g>
               <path d="M68.5, 110 L68.5 139.5 Q68.5 143.5
                72.5 143.5
                L79 143.5 " style="fill:none; stroke:#444; stroke-width:1"></path>
               <path d="M79, 140.5 L87, 143.5 L79, 146.5 Z" fill="#333"></path>
            </g>
            <g>
               <path d="M105.5, 158.5 L105.5 203 Q105.5 207
                109.5 207
                L116 207 " style="fill:none; stroke:#444; stroke-width:1"></path>
               <path d="M116, 204 L124, 207 L116, 210 Z" fill="#333"></path>
            </g>
            <g>
               <path d="M154, 237 L154 258 Q154 262
                158 262
                L166 262 " style="fill:none; stroke:#444; stroke-width:1"></path>
               <path d="M166, 259 L174, 262 L166, 265 Z" fill="#333"></path>
            </g>
            <g>
               <path d="M105.5, 158.5 L105.5 323 Q105.5 327
                109.5 327
                L116 327 " style="fill:none; stroke:#444; stroke-width:1"></path>
               <path d="M116, 324 L124, 327 L116, 330 Z" fill="#333"></path>
            </g>
            <g>
               <path d="M154, 357 L154 378 Q154 382
                158 382
                L166 382 " style="fill:none; stroke:#444; stroke-width:1"></path>
               <path d="M166, 379 L174, 382 L166, 385 Z" fill="#333"></path>
            </g>
            <g>
               <path d="M154, 357 L154 426.5 Q154 430.5
                158 430.5
                L166 430.5 " style="fill:none; stroke:#444; stroke-width:1"></path>
               <path d="M166, 427.5 L174, 430.5 L166, 433.5 Z" fill="#333"></path>
            </g>
            <g>
               <path d="M105.5, 158.5 L105.5 491.5 Q105.5 495.5
                109.5 495.5
                L116 495.5 " style="fill:none; stroke:#444; stroke-width:1"></path>
               <path d="M116, 492.5 L124, 495.5 L116, 498.5 Z" fill="#333"></path>
            </g>
            <g>
               <path d="M154, 525.5 L154 546.5 Q154 550.5
                158 550.5
                L166 550.5 " style="fill:none; stroke:#444; stroke-width:1"></path>
               <path d="M166, 547.5 L174, 550.5 L166, 553.5 Z" fill="#333"></path>
            </g>
            <g>
               <path d="M105.5, 158.5 L105.5 596.5 Q105.5 600.5
                109.5 600.5
                L116 600.5 " style="fill:none; stroke:#444; stroke-width:1"></path>
               <path d="M116, 597.5 L124, 600.5 L116, 603.5 Z" fill="#333"></path>
            </g>
            <g>
               <path d="M105.5, 158.5 L105.5 645 Q105.5 649
                109.5 649
                L116 649 " style="fill:none; stroke:#444; stroke-width:1"></path>
               <path d="M116, 646 L124, 649 L116, 652 Z" fill="#333"></path>
            </g>
            <g>
               <path d="M105.5, 158.5 L105.5 708.5 Q105.5 712.5
                109.5 712.5
                L116 712.5 " style="fill:none; stroke:#444; stroke-width:1"></path>
               <path d="M116, 709.5 L124, 712.5 L116, 715.5 Z" fill="#333"></path>
            </g>
            <g>
               <path d="M154, 742.5 L154 763.5 Q154 767.5
                158 767.5
                L166 767.5 " style="fill:none; stroke:#444; stroke-width:1"></path>
               <path d="M166, 764.5 L174, 767.5 L166, 770.5 Z" fill="#333"></path>
            </g>
            <g>
               <path d="M105.5, 158.5 L105.5 828.5 Q105.5 832.5
                109.5 832.5
                L116 832.5 " style="fill:none; stroke:#444; stroke-width:1"></path>
               <path d="M116, 829.5 L124, 832.5 L116, 835.5 Z" fill="#333"></path>
            </g>
            <g>
               <path d="M154, 862.5 L154 883.5 Q154 887.5
                158 887.5
                L166 887.5 " style="fill:none; stroke:#444; stroke-width:1"></path>
               <path d="M166, 884.5 L174, 887.5 L166, 890.5 Z" fill="#333"></path>
            </g>
            <g>
               <path d="M580.5999999999999, 832.5 L616.5999999999999 832.5  Q620.5999999999999 832.5
                620.5999999999999 836.5
                L620.5999999999999 879.5 Q620.5999999999999 887.5
                624.5999999999999 887.5
                L632.5999999999999 887.5 " style="fill:none; stroke:#444; stroke-width:1"></path>
               <path d="M632.5999999999999, 884.5 L640.5999999999999, 887.5 L632.5999999999999, 890.5 Z" fill="#333"></path>
            </g>
            </svg>
