
                <svg xmlns="http://www.w3.org/2000/svg" xmlns:xlink="http://www.w3.org/1999/xlink" width="651" height="826" shape-rendering="optimizeSpeed">

            <g>
                <rect x="50" y="80" width="279.6" height="30" rx="3" ry="3" style="fill:#81d4fa; stroke:#444; stroke-width:1"></rect>

                <line x1="329.6" y1="90" x2="334.6" y2="90" style="fill:#fff; stroke:#444; stroke-width:1"></line>

                <line x1="329.6" y1="100" x2="334.6" y2="100" style="fill:#fff; stroke:#444; stroke-width:1"></line>

                <path d="M334.6, 81 L354.6, 95 L334.6, 109 Z" fill="#fff" stroke="#444" stroke-width="1"></path>

                <title>export mergeObjectWithoutReplace</title>
            <text x="65" y="100" font-family="monospace" font-size="13" fill="#222">
                <tspan x="65" y="100">export mergeObjectWithoutReplace</tspan>
            </text>

            </g>
            <g>
                <rect x="87" y="128.5" width="463.4" height="30" style="fill:#a5d6a7; stroke:#444; stroke-width:1"></rect>

                <line x1="97" y1="128.5" x2="97" y2="158.5" style="fill:#a5d6a7; stroke:#444; stroke-width:1"></line>
                <line x1="540.4" y1="128.5" x2="540.4" y2="158.5" style="fill:#a5d6a7; stroke:#444; stroke-width:1"></line>

                <title>mergeObjectWithoutReplace = (template, locale, isVer) =&gt;</title>
            <text x="112" y="148.5" font-family="monospace" font-size="13" fill="#222">
                <tspan x="112" y="148.5">mergeObjectWithoutReplace = (template, locale, isVer)</tspan>
            </text>

            </g>
                <g>
                   <rect x="124" y="177" width="147" height="30" rx="3" ry="3" style="fill:#90caf9; stroke:#444; stroke-width:1"></rect>
                   <title>TemplatePackage</title>
            <text x="139" y="197" font-family="monospace" font-size="13" fill="#222">
                <tspan x="139" y="197">TemplatePackage</tspan>
            </text>


                </g>
                <g>
                   <rect x="124" y="225.5" width="131.39999999999998" height="30" rx="3" ry="3" style="fill:#90caf9; stroke:#444; stroke-width:1"></rect>
                   <title>LocalePackage</title>
            <text x="139" y="245.5" font-family="monospace" font-size="13" fill="#222">
                <tspan x="139" y="245.5">LocalePackage</tspan>
            </text>


                </g><g>

                    <rect xmlns="http://www.w3.org/2000/svg" x="154" y="309" width="184.8" height="30" rx="3" ry="3" style="fill:#b39ddb; stroke:#444; stroke-width:1"/><polygon points="124,324 154,294 184,324 154,354" style="fill:#b39ddb; stroke:#444; stroke-width:1"></polygon>

            <title> key in template</title>
            <text x="199" y="329" font-family="monospace" font-size="13" fill="#222">
                <tspan x="199" y="329"> key in template</tspan>
            </text>

            <text x="142.3" y="329" font-family="monospace" font-size="13" fill="#222">for</text>
        </g><g>
            <rect x="204" y="379" width="169.2" height="30" rx="3" ry="3" style="fill:#ce93d8; stroke:#444; stroke-width:1"></rect>
            <polygon points="174,394 204,364 234,394 204,424" style="fill:#ce93d8; stroke:#444; stroke-width:1"></polygon>
            <title>(!locale[key])</title>
            <text x="249" y="399" font-family="monospace" font-size="13" fill="#222">
                <tspan x="249" y="399">(!locale[key])</tspan>
            </text>

            <text x="196.2" y="399" font-family="monospace" font-size="13" fill="#222">if</text> <text x="211.8" y="425.95" font-family="monospace" font-size="13" fill="#222">+</text>
        </g>
                <g>
                   <rect x="224" y="434" width="240.6" height="30" rx="3" ry="3" style="fill:#90caf9; stroke:#444; stroke-width:1"></rect>
                   <title>locale[key] = template[key]</title>
            <text x="239" y="454" font-family="monospace" font-size="13" fill="#222">
                <tspan x="239" y="454">locale[key] = template[key]</tspan>
            </text>


                </g><g>
            <rect x="204" y="499" width="364.2" height="30" rx="3" ry="3" style="fill:#ce93d8; stroke:#444; stroke-width:1"></rect>
            <polygon points="174,514 204,484 234,514 204,544" style="fill:#ce93d8; stroke:#444; stroke-width:1"></polygon>
            <title>(template[key] &amp;&amp; locale[key] &amp;&amp; isVer)</title>
            <text x="249" y="519" font-family="monospace" font-size="13" fill="#222">
                <tspan x="249" y="519">(template[key] &amp;&amp; locale[key] &amp;&amp; isVer)</tspan>
            </text>

            <text x="196.2" y="519" font-family="monospace" font-size="13" fill="#222">if</text> <text x="211.8" y="545.95" font-family="monospace" font-size="13" fill="#222">+</text>
        </g>
                <g>
                   <rect x="224" y="554" width="381" height="30" rx="3" ry="3" style="fill:#90caf9; stroke:#444; stroke-width:1"></rect>
                   <title>verLast = compare(template[key], locale[key])</title>
            <text x="239" y="574" font-family="monospace" font-size="13" fill="#222">
                <tspan x="239" y="574">verLast = compare(template[key], locale[key])</tspan>
            </text>


                </g><g>
            <rect x="254" y="617.5" width="372" height="30" rx="3" ry="3" style="fill:#ce93d8; stroke:#444; stroke-width:1"></rect>
            <polygon points="224,632.5 254,602.5 284,632.5 254,662.5" style="fill:#ce93d8; stroke:#444; stroke-width:1"></polygon>
            <title>(locale[key] &amp;&amp; verLast !== locale[key])</title>
            <text x="299" y="637.5" font-family="monospace" font-size="13" fill="#222">
                <tspan x="299" y="637.5">(locale[key] &amp;&amp; verLast !== locale[key])</tspan>
            </text>

            <text x="246.2" y="637.5" font-family="monospace" font-size="13" fill="#222">if</text> <text x="261.8" y="664.45" font-family="monospace" font-size="13" fill="#222">+</text>
        </g>
                <g>
                   <rect x="274" y="672.5" width="193.79999999999998" height="30" rx="3" ry="3" style="fill:#90caf9; stroke:#444; stroke-width:1"></rect>
                   <title>locale[key] = verLast</title>
            <text x="289" y="692.5" font-family="monospace" font-size="13" fill="#222">
                <tspan x="289" y="692.5">locale[key] = verLast</tspan>
            </text>


                </g>
            <g>
                <rect x="124" y="722.5" width="131.39999999999998" height="30" rx="3" ry="3" style="fill:#90caf9; stroke:#444; stroke-width:1"></rect>

                <line x1="255.39999999999998" y1="732.5" x2="260.4" y2="732.5" style="fill:#a5d6a7; stroke:#444; stroke-width:1"></line>

                <line x1="255.39999999999998" y1="742.5" x2="260.4" y2="742.5" style="fill:#a5d6a7; stroke:#444; stroke-width:1"></line>

                <path d="M260.4, 726.5 L276.4, 737.5 L260.4, 748.5 Z" fill="#a5d6a7" stroke="#444" stroke-width="1"></path>

                <title>return locale</title>
            <text x="139" y="742.5" font-family="monospace" font-size="13" fill="#222">
                <tspan x="139" y="742.5">return locale</tspan>
            </text>

            </g>
                <g>
                   <rect x="124" y="771" width="84.6" height="30" rx="3" ry="3" style="fill:#90caf9; stroke:#444; stroke-width:1"></rect>
                   <title>Package</title>
            <text x="139" y="791" font-family="monospace" font-size="13" fill="#222">
                <tspan x="139" y="791">Package</tspan>
            </text>


                </g>
            <g>
               <rect x="25" y="13.75" width="216.6" height="24" style="fill:#fff59d; stroke:#444; stroke-width:1"></rect>
               <circle cx="25" cy="25" r="15" style="fill:#fff59d; stroke:#444; stroke-width:1"></circle>
               <title>Program: source module</title>
            <text x="55" y="30" font-family="monospace" font-size="13" fill="#222">
                <tspan x="55" y="30">Program: source module</tspan>
            </text>
            </g>
            <g>
               <path d="M25, 40 L25 91 Q25 95
                29 95
                L42 95 " style="fill:none; stroke:#444; stroke-width:1"></path>
               <path d="M42, 92 L50, 95 L42, 98 Z" fill="#333"></path>
            </g>
            <g>
               <path d="M68.5, 110 L68.5 139.5 Q68.5 143.5
                72.5 143.5
                L79 143.5 " style="fill:none; stroke:#444; stroke-width:1"></path>
               <path d="M79, 140.5 L87, 143.5 L79, 146.5 Z" fill="#333"></path>
            </g>
            <g>
               <path d="M105.5, 158.5 L105.5 188 Q105.5 192
                109.5 192
                L116 192 " style="fill:none; stroke:#444; stroke-width:1"></path>
               <path d="M116, 189 L124, 192 L116, 195 Z" fill="#333"></path>
            </g>
            <g>
               <path d="M105.5, 158.5 L105.5 236.5 Q105.5 240.5
                109.5 240.5
                L116 240.5 " style="fill:none; stroke:#444; stroke-width:1"></path>
               <path d="M116, 237.5 L124, 240.5 L116, 243.5 Z" fill="#333"></path>
            </g>
            <g>
               <path d="M105.5, 158.5 L105.5 320 Q105.5 324
                109.5 324
                L116 324 " style="fill:none; stroke:#444; stroke-width:1"></path>
               <path d="M116, 321 L124, 324 L116, 327 Z" fill="#333"></path>
            </g>
            <g>
               <path d="M154, 354 L154 390 Q154 394
                158 394
                L166 394 " style="fill:none; stroke:#444; stroke-width:1"></path>
               <path d="M166, 391 L174, 394 L166, 397 Z" fill="#333"></path>
            </g>
            <g>
               <path d="M204, 424 L204 445 Q204 449
                208 449
                L216 449 " style="fill:none; stroke:#444; stroke-width:1"></path>
               <path d="M216, 446 L224, 449 L216, 452 Z" fill="#333"></path>
            </g>
            <g>
               <path d="M154, 354 L154 510 Q154 514
                158 514
                L166 514 " style="fill:none; stroke:#444; stroke-width:1"></path>
               <path d="M166, 511 L174, 514 L166, 517 Z" fill="#333"></path>
            </g>
            <g>
               <path d="M204, 544 L204 565 Q204 569
                208 569
                L216 569 " style="fill:none; stroke:#444; stroke-width:1"></path>
               <path d="M216, 566 L224, 569 L216, 572 Z" fill="#333"></path>
            </g>
            <g>
               <path d="M204, 544 L204 628.5 Q204 632.5
                208 632.5
                L216 632.5 " style="fill:none; stroke:#444; stroke-width:1"></path>
               <path d="M216, 629.5 L224, 632.5 L216, 635.5 Z" fill="#333"></path>
            </g>
            <g>
               <path d="M254, 662.5 L254 683.5 Q254 687.5
                258 687.5
                L266 687.5 " style="fill:none; stroke:#444; stroke-width:1"></path>
               <path d="M266, 684.5 L274, 687.5 L266, 690.5 Z" fill="#333"></path>
            </g>
            <g>
               <path d="M467.79999999999995, 687.5 L642 687.5  Q646 687.5
                646 683.5
                L646 282 Q646 274
                642 274
                L162 274  Q154 274
                154 278
                L154 286" style="fill:none; stroke:#444; stroke-width:1"></path>
               <path d="M151, 286 L154, 294 L157, 286 Z" fill="#333"></path>
            </g>
            <g>
               <path d="M105.5, 158.5 L105.5 733.5 Q105.5 737.5
                109.5 737.5
                L116 737.5 " style="fill:none; stroke:#444; stroke-width:1"></path>
               <path d="M116, 734.5 L124, 737.5 L116, 740.5 Z" fill="#333"></path>
            </g>
            <g>
               <path d="M105.5, 158.5 L105.5 782 Q105.5 786
                109.5 786
                L116 786 " style="fill:none; stroke:#444; stroke-width:1"></path>
               <path d="M116, 783 L124, 786 L116, 789 Z" fill="#333"></path>
            </g>
            </svg>
