
                <svg xmlns="http://www.w3.org/2000/svg" xmlns:xlink="http://www.w3.org/1999/xlink" width="606" height="1317" shape-rendering="optimizeSpeed">
                
            <g>
                <rect x="50" y="80" width="206" height="30" style="fill:#a5d6a7; stroke:#444; stroke-width:1"></rect>
                    
                <line x1="60" y1="80" x2="60" y2="110" style="fill:#a5d6a7; stroke:#444; stroke-width:1"></line>
                <line x1="246" y1="80" x2="246" y2="110" style="fill:#a5d6a7; stroke:#444; stroke-width:1"></line>
             
                <title>function update(url)</title>
            <text x="75" y="100" font-family="monospace" font-size="13" fill="#222">
                <tspan x="75" y="100">function update(url)</tspan>
            </text>
                
            </g>
                <g>
                   <rect x="87" y="128.5" width="287.4" height="30" rx="3" ry="3" style="fill:#90caf9; stroke:#444; stroke-width:1"></rect>
                   <title>const templateBranch = 'template'</title>
            <text x="102" y="148.5" font-family="monospace" font-size="13" fill="#222">
                <tspan x="102" y="148.5">const templateBranch = 'template'</tspan>
            </text>
                   
                   
                </g><g>
            <rect x="117" y="192" width="106.80000000000001" height="30" rx="3" ry="3" style="fill:#ce93d8; stroke:#444; stroke-width:1"></rect>                
            <polygon points="87,207 117,177 147,207 117,237" style="fill:#ce93d8; stroke:#444; stroke-width:1"></polygon>
            <title>(!url)</title>
            <text x="162" y="212" font-family="monospace" font-size="13" fill="#222">
                <tspan x="162" y="212">(!url)</tspan>
            </text>
            
            <text x="109.2" y="212" font-family="monospace" font-size="13" fill="#222">if</text> <text x="124.8" y="238.95" font-family="monospace" font-size="13" fill="#222">+</text> 
        </g>
                <g>
                   <rect x="137" y="247" width="365.4" height="30" rx="2" ry="2" style="fill:#ef9a9a; stroke:#444; stroke-width:1"></rect>
                   <title>throw Error('Repository url not specified')</title>
            <text x="152" y="267" font-family="monospace" font-size="13" fill="#222">
                <tspan x="152" y="267">throw Error('Repository url not specified')</tspan>
            </text>
                   
                   
                </g>
                <g>
                   <rect x="174" y="295.5" width="318.59999999999997" height="30" rx="2" ry="2" style="fill:#C5E1A5; stroke:#444; stroke-width:1"></rect>
                   <title>Error('Repository url not specified')</title>
            <text x="189" y="315.5" font-family="monospace" font-size="13" fill="#222">
                <tspan x="189" y="315.5">Error('Repository url not specified')</tspan>
            </text>
                   
                   
                </g>
            <g>
                <rect x="137" y="344" width="92.4" height="30" rx="3" ry="3" style="fill:#90caf9; stroke:#444; stroke-width:1"></rect>
                
                <line x1="229.4" y1="354" x2="234.4" y2="354" style="fill:#a5d6a7; stroke:#444; stroke-width:1"></line>
                
                <line x1="229.4" y1="364" x2="234.4" y2="364" style="fill:#a5d6a7; stroke:#444; stroke-width:1"></line>

                <path d="M234.4, 348 L250.4, 359 L234.4, 370 Z" fill="#a5d6a7" stroke="#444" stroke-width="1"></path>
                             
                <title>return 0</title>
            <text x="152" y="364" font-family="monospace" font-size="13" fill="#222">
                <tspan x="152" y="364">return 0</tspan>
            </text>
                
            </g><g>
            <rect x="117" y="409" width="192.6" height="30" rx="3" ry="3" style="fill:#ce93d8; stroke:#444; stroke-width:1"></rect>                
            <polygon points="87,424 117,394 147,424 117,454" style="fill:#ce93d8; stroke:#444; stroke-width:1"></polygon>
            <title>(url.isInvalid())</title>
            <text x="162" y="429" font-family="monospace" font-size="13" fill="#222">
                <tspan x="162" y="429">(url.isInvalid())</tspan>
            </text>
            
            <text x="109.2" y="429" font-family="monospace" font-size="13" fill="#222">if</text> <text x="124.8" y="455.95" font-family="monospace" font-size="13" fill="#222">+</text> 
        </g>
                <g>
                   <rect x="137" y="464" width="271.79999999999995" height="30" rx="2" ry="2" style="fill:#ef9a9a; stroke:#444; stroke-width:1"></rect>
                   <title>throw Error('Git URL is valid')</title>
            <text x="152" y="484" font-family="monospace" font-size="13" fill="#222">
                <tspan x="152" y="484">throw Error('Git URL is valid')</tspan>
            </text>
                   
                   
                </g>
                <g>
                   <rect x="174" y="512.5" width="225" height="30" rx="2" ry="2" style="fill:#C5E1A5; stroke:#444; stroke-width:1"></rect>
                   <title>Error('Git URL is valid')</title>
            <text x="189" y="532.5" font-family="monospace" font-size="13" fill="#222">
                <tspan x="189" y="532.5">Error('Git URL is valid')</tspan>
            </text>
                   
                   
                </g><g>
            <rect x="117" y="577.5" width="325.2" height="30" rx="3" ry="3" style="fill:#ce93d8; stroke:#444; stroke-width:1"></rect>                
            <polygon points="87,592.5 117,562.5 147,592.5 117,622.5" style="fill:#ce93d8; stroke:#444; stroke-width:1"></polygon>
            <title>(currentBranch !== templateBranch)</title>
            <text x="162" y="597.5" font-family="monospace" font-size="13" fill="#222">
                <tspan x="162" y="597.5">(currentBranch !== templateBranch)</tspan>
            </text>
            
            <text x="109.2" y="597.5" font-family="monospace" font-size="13" fill="#222">if</text> <text x="124.8" y="624.45" font-family="monospace" font-size="13" fill="#222">+</text> 
        </g>
                <g>
                   <rect x="137" y="632.5" width="248.4" height="30" rx="2" ry="2" style="fill:#C5E1A5; stroke:#444; stroke-width:1"></rect>
                   <title>git.checkout(templateBranch)</title>
            <text x="152" y="652.5" font-family="monospace" font-size="13" fill="#222">
                <tspan x="152" y="652.5">git.checkout(templateBranch)</tspan>
            </text>
                   
                   
                </g>
                <g>
                   <rect x="87" y="682.5" width="139.2" height="30" rx="2" ry="2" style="fill:#C5E1A5; stroke:#444; stroke-width:1"></rect>
                   <title>git.clone(url)</title>
            <text x="102" y="702.5" font-family="monospace" font-size="13" fill="#222">
                <tspan x="102" y="702.5">git.clone(url)</tspan>
            </text>
                   
                   
                </g>
                <g>
                   <rect x="87" y="731" width="279.6" height="30" rx="3" ry="3" style="fill:#90caf9; stroke:#444; stroke-width:1"></rect>
                   <title>const files = cd(templateBranch)</title>
            <text x="102" y="751" font-family="monospace" font-size="13" fill="#222">
                <tspan x="102" y="751">const files = cd(templateBranch)</tspan>
            </text>
                   
                   
                </g>
                <g>
                   <rect x="87" y="779.5" width="373.2" height="30" rx="3" ry="3" style="fill:#90caf9; stroke:#444; stroke-width:1"></rect>
                   <title>const config = files.get('.templaterc.json')</title>
            <text x="102" y="799.5" font-family="monospace" font-size="13" fill="#222">
                <tspan x="102" y="799.5">const config = files.get('.templaterc.json')</tspan>
            </text>
                   
                   
                </g><g>
            <rect x="117" y="843" width="130.2" height="30" rx="3" ry="3" style="fill:#ce93d8; stroke:#444; stroke-width:1"></rect>                
            <polygon points="87,858 117,828 147,858 117,888" style="fill:#ce93d8; stroke:#444; stroke-width:1"></polygon>
            <title>(!config)</title>
            <text x="162" y="863" font-family="monospace" font-size="13" fill="#222">
                <tspan x="162" y="863">(!config)</tspan>
            </text>
            
            <text x="109.2" y="863" font-family="monospace" font-size="13" fill="#222">if</text> <text x="124.8" y="889.95" font-family="monospace" font-size="13" fill="#222">+</text> 
        </g>
                <g>
                   <rect x="137" y="898" width="443.4" height="30" rx="2" ry="2" style="fill:#ef9a9a; stroke:#444; stroke-width:1"></rect>
                   <title>throw Error('.templaterc.json config file not found')</title>
            <text x="152" y="918" font-family="monospace" font-size="13" fill="#222">
                <tspan x="152" y="918">throw Error('.templaterc.json config file not foun...</tspan>
            </text>
                   
                   
                </g>
                <g>
                   <rect x="174" y="946.5" width="396.59999999999997" height="30" rx="2" ry="2" style="fill:#C5E1A5; stroke:#444; stroke-width:1"></rect>
                   <title>Error('.templaterc.json config file not found')</title>
            <text x="189" y="966.5" font-family="monospace" font-size="13" fill="#222">
                <tspan x="189" y="966.5">Error('.templaterc.json config file not found')</tspan>
            </text>
                   
                   
                </g>
                <g>
                   <rect x="87" y="996.5" width="178.2" height="30" rx="2" ry="2" style="fill:#C5E1A5; stroke:#444; stroke-width:1"></rect>
                   <title>mergeConfig(config)</title>
            <text x="102" y="1016.5" font-family="monospace" font-size="13" fill="#222">
                <tspan x="102" y="1016.5">mergeConfig(config)</tspan>
            </text>
                   
                   
                </g><g>
            <rect x="117" y="1060" width="216" height="30" rx="3" ry="3" style="fill:#ce93d8; stroke:#444; stroke-width:1"></rect>                
            <polygon points="87,1075 117,1045 147,1075 117,1105" style="fill:#ce93d8; stroke:#444; stroke-width:1"></polygon>
            <title>(config.directories)</title>
            <text x="162" y="1080" font-family="monospace" font-size="13" fill="#222">
                <tspan x="162" y="1080">(config.directories)</tspan>
            </text>
            
            <text x="109.2" y="1080" font-family="monospace" font-size="13" fill="#222">if</text> <text x="124.8" y="1106.95" font-family="monospace" font-size="13" fill="#222">+</text> 
        </g>
                <g>
                   <rect x="137" y="1115" width="123.6" height="30" rx="2" ry="2" style="fill:#C5E1A5; stroke:#444; stroke-width:1"></rect>
                   <title>copy.files()</title>
            <text x="152" y="1135" font-family="monospace" font-size="13" fill="#222">
                <tspan x="152" y="1135">copy.files()</tspan>
            </text>
                   
                   
                </g>
                <g>
                   <rect x="87" y="1165" width="139.2" height="30" rx="2" ry="2" style="fill:#C5E1A5; stroke:#444; stroke-width:1"></rect>
                   <title>git.add(files)</title>
            <text x="102" y="1185" font-family="monospace" font-size="13" fill="#222">
                <tspan x="102" y="1185">git.add(files)</tspan>
            </text>
                   
                   
                </g>
                <g>
                   <rect x="87" y="1213.5" width="256.2" height="30" rx="2" ry="2" style="fill:#C5E1A5; stroke:#444; stroke-width:1"></rect>
                   <title>git.commit('update template')</title>
            <text x="102" y="1233.5" font-family="monospace" font-size="13" fill="#222">
                <tspan x="102" y="1233.5">git.commit('update template')</tspan>
            </text>
                   
                   
                </g>
                <g>
                   <rect x="87" y="1262" width="108" height="30" rx="2" ry="2" style="fill:#C5E1A5; stroke:#444; stroke-width:1"></rect>
                   <title>git.push()</title>
            <text x="102" y="1282" font-family="monospace" font-size="13" fill="#222">
                <tspan x="102" y="1282">git.push()</tspan>
            </text>
                   
                   
                </g>
            <g>
               <rect x="25" y="13.75" width="216.6" height="24" style="fill:#fff59d; stroke:#444; stroke-width:1"></rect>
               <circle cx="25" cy="25" r="15" style="fill:#fff59d; stroke:#444; stroke-width:1"></circle>
               <title>Program: source module</title>
            <text x="55" y="30" font-family="monospace" font-size="13" fill="#222">
                <tspan x="55" y="30">Program: source module</tspan>
            </text>
            </g>
            <g>
               <path d="M25, 40 L25 91 Q25 95
                29 95
                L42 95 " style="fill:none; stroke:#444; stroke-width:1"></path>
               <path d="M42, 92 L50, 95 L42, 98 Z" fill="#333"></path>
            </g>
            <g>
               <path d="M68.5, 110 L68.5 139.5 Q68.5 143.5
                72.5 143.5
                L79 143.5 " style="fill:none; stroke:#444; stroke-width:1"></path>
               <path d="M79, 140.5 L87, 143.5 L79, 146.5 Z" fill="#333"></path>
            </g>
            <g>
               <path d="M68.5, 110 L68.5 203 Q68.5 207
                72.5 207
                L79 207 " style="fill:none; stroke:#444; stroke-width:1"></path>
               <path d="M79, 204 L87, 207 L79, 210 Z" fill="#333"></path>
            </g>
            <g>
               <path d="M117, 237 L117 258 Q117 262
                121 262
                L129 262 " style="fill:none; stroke:#444; stroke-width:1"></path>
               <path d="M129, 259 L137, 262 L129, 265 Z" fill="#333"></path>
            </g>
            <g>
               <path d="M155.5, 277 L155.5 306.5 Q155.5 310.5
                159.5 310.5
                L166 310.5 " style="fill:none; stroke:#444; stroke-width:1"></path>
               <path d="M166, 307.5 L174, 310.5 L166, 313.5 Z" fill="#333"></path>
            </g>
            <g>
               <path d="M117, 237 L117 355 Q117 359
                121 359
                L129 359 " style="fill:none; stroke:#444; stroke-width:1"></path>
               <path d="M129, 356 L137, 359 L129, 362 Z" fill="#333"></path>
            </g>
            <g>
               <path d="M68.5, 110 L68.5 420 Q68.5 424
                72.5 424
                L79 424 " style="fill:none; stroke:#444; stroke-width:1"></path>
               <path d="M79, 421 L87, 424 L79, 427 Z" fill="#333"></path>
            </g>
            <g>
               <path d="M117, 454 L117 475 Q117 479
                121 479
                L129 479 " style="fill:none; stroke:#444; stroke-width:1"></path>
               <path d="M129, 476 L137, 479 L129, 482 Z" fill="#333"></path>
            </g>
            <g>
               <path d="M155.5, 494 L155.5 523.5 Q155.5 527.5
                159.5 527.5
                L166 527.5 " style="fill:none; stroke:#444; stroke-width:1"></path>
               <path d="M166, 524.5 L174, 527.5 L166, 530.5 Z" fill="#333"></path>
            </g>
            <g>
               <path d="M68.5, 110 L68.5 588.5 Q68.5 592.5
                72.5 592.5
                L79 592.5 " style="fill:none; stroke:#444; stroke-width:1"></path>
               <path d="M79, 589.5 L87, 592.5 L79, 595.5 Z" fill="#333"></path>
            </g>
            <g>
               <path d="M117, 622.5 L117 643.5 Q117 647.5
                121 647.5
                L129 647.5 " style="fill:none; stroke:#444; stroke-width:1"></path>
               <path d="M129, 644.5 L137, 647.5 L129, 650.5 Z" fill="#333"></path>
            </g>
            <g>
               <path d="M68.5, 110 L68.5 693.5 Q68.5 697.5
                72.5 697.5
                L79 697.5 " style="fill:none; stroke:#444; stroke-width:1"></path>
               <path d="M79, 694.5 L87, 697.5 L79, 700.5 Z" fill="#333"></path>
            </g>
            <g>
               <path d="M68.5, 110 L68.5 742 Q68.5 746
                72.5 746
                L79 746 " style="fill:none; stroke:#444; stroke-width:1"></path>
               <path d="M79, 743 L87, 746 L79, 749 Z" fill="#333"></path>
            </g>
            <g>
               <path d="M68.5, 110 L68.5 790.5 Q68.5 794.5
                72.5 794.5
                L79 794.5 " style="fill:none; stroke:#444; stroke-width:1"></path>
               <path d="M79, 791.5 L87, 794.5 L79, 797.5 Z" fill="#333"></path>
            </g>
            <g>
               <path d="M68.5, 110 L68.5 854 Q68.5 858
                72.5 858
                L79 858 " style="fill:none; stroke:#444; stroke-width:1"></path>
               <path d="M79, 855 L87, 858 L79, 861 Z" fill="#333"></path>
            </g>
            <g>
               <path d="M117, 888 L117 909 Q117 913
                121 913
                L129 913 " style="fill:none; stroke:#444; stroke-width:1"></path>
               <path d="M129, 910 L137, 913 L129, 916 Z" fill="#333"></path>
            </g>
            <g>
               <path d="M155.5, 928 L155.5 957.5 Q155.5 961.5
                159.5 961.5
                L166 961.5 " style="fill:none; stroke:#444; stroke-width:1"></path>
               <path d="M166, 958.5 L174, 961.5 L166, 964.5 Z" fill="#333"></path>
            </g>
            <g>
               <path d="M68.5, 110 L68.5 1007.5 Q68.5 1011.5
                72.5 1011.5
                L79 1011.5 " style="fill:none; stroke:#444; stroke-width:1"></path>
               <path d="M79, 1008.5 L87, 1011.5 L79, 1014.5 Z" fill="#333"></path>
            </g>
            <g>
               <path d="M68.5, 110 L68.5 1071 Q68.5 1075
                72.5 1075
                L79 1075 " style="fill:none; stroke:#444; stroke-width:1"></path>
               <path d="M79, 1072 L87, 1075 L79, 1078 Z" fill="#333"></path>
            </g>
            <g>
               <path d="M117, 1105 L117 1126 Q117 1130
                121 1130
                L129 1130 " style="fill:none; stroke:#444; stroke-width:1"></path>
               <path d="M129, 1127 L137, 1130 L129, 1133 Z" fill="#333"></path>
            </g>
            <g>
               <path d="M68.5, 110 L68.5 1176 Q68.5 1180
                72.5 1180
                L79 1180 " style="fill:none; stroke:#444; stroke-width:1"></path>
               <path d="M79, 1177 L87, 1180 L79, 1183 Z" fill="#333"></path>
            </g>
            <g>
               <path d="M68.5, 110 L68.5 1224.5 Q68.5 1228.5
                72.5 1228.5
                L79 1228.5 " style="fill:none; stroke:#444; stroke-width:1"></path>
               <path d="M79, 1225.5 L87, 1228.5 L79, 1231.5 Z" fill="#333"></path>
            </g>
            <g>
               <path d="M68.5, 110 L68.5 1273 Q68.5 1277
                72.5 1277
                L79 1277 " style="fill:none; stroke:#444; stroke-width:1"></path>
               <path d="M79, 1274 L87, 1277 L79, 1280 Z" fill="#333"></path>
            </g>
            </svg>